<mxfile host="app.diagrams.net" modified="2020-11-02T11:18:13.634Z" agent="5.0 (Macintosh; Intel Mac OS X 10_15_6) AppleWebKit/605.1.15 (KHTML, like Gecko) Version/14.0.1 Safari/605.1.15" etag="SLPA0aJ1Uz2mx5jw7In3" version="13.8.6" type="github">
  <diagram id="kgpKYQtTHZ0yAKxKKP6v" name="Page-1">
    <mxGraphModel dx="1471" dy="990" grid="1" gridSize="10" guides="1" tooltips="1" connect="1" arrows="1" fold="1" page="1" pageScale="1" pageWidth="850" pageHeight="1100" math="0" shadow="0">
      <root>
        <mxCell id="0" />
        <mxCell id="1" parent="0" />
        <mxCell id="9y2KvSh_7_GxnZTD8iaE-1" value="Order Service" style="shape=umlLifeline;perimeter=lifelinePerimeter;whiteSpace=wrap;html=1;container=1;collapsible=0;recursiveResize=0;outlineConnect=0;" vertex="1" parent="1">
          <mxGeometry x="60" y="60" width="100" height="800" as="geometry" />
        </mxCell>
        <mxCell id="9y2KvSh_7_GxnZTD8iaE-13" value="" style="html=1;points=[];perimeter=orthogonalPerimeter;" vertex="1" parent="9y2KvSh_7_GxnZTD8iaE-1">
          <mxGeometry x="43" y="80" width="10" height="30" as="geometry" />
        </mxCell>
        <mxCell id="9y2KvSh_7_GxnZTD8iaE-14" value="Place order" style="html=1;verticalAlign=bottom;startArrow=oval;endArrow=block;startSize=8;" edge="1" target="9y2KvSh_7_GxnZTD8iaE-13" parent="9y2KvSh_7_GxnZTD8iaE-1">
          <mxGeometry relative="1" as="geometry">
            <mxPoint x="-40" y="80" as="sourcePoint" />
          </mxGeometry>
        </mxCell>
        <mxCell id="9y2KvSh_7_GxnZTD8iaE-30" value="" style="html=1;points=[];perimeter=orthogonalPerimeter;" vertex="1" parent="9y2KvSh_7_GxnZTD8iaE-1">
          <mxGeometry x="45" y="220" width="10" height="30" as="geometry" />
        </mxCell>
        <mxCell id="9y2KvSh_7_GxnZTD8iaE-2" value="Tse Service" style="shape=umlLifeline;perimeter=lifelinePerimeter;whiteSpace=wrap;html=1;container=1;collapsible=0;recursiveResize=0;outlineConnect=0;" vertex="1" parent="1">
          <mxGeometry x="600" y="60" width="100" height="800" as="geometry" />
        </mxCell>
        <mxCell id="9y2KvSh_7_GxnZTD8iaE-28" value="" style="html=1;points=[];perimeter=orthogonalPerimeter;" vertex="1" parent="9y2KvSh_7_GxnZTD8iaE-2">
          <mxGeometry x="45" y="190" width="10" height="120" as="geometry" />
        </mxCell>
        <mxCell id="9y2KvSh_7_GxnZTD8iaE-44" value="" style="html=1;points=[];perimeter=orthogonalPerimeter;" vertex="1" parent="9y2KvSh_7_GxnZTD8iaE-2">
          <mxGeometry x="45" y="420" width="10" height="40" as="geometry" />
        </mxCell>
        <mxCell id="9y2KvSh_7_GxnZTD8iaE-52" value="" style="html=1;points=[];perimeter=orthogonalPerimeter;" vertex="1" parent="9y2KvSh_7_GxnZTD8iaE-2">
          <mxGeometry x="45" y="580" width="10" height="40" as="geometry" />
        </mxCell>
        <mxCell id="9y2KvSh_7_GxnZTD8iaE-56" value="" style="html=1;points=[];perimeter=orthogonalPerimeter;" vertex="1" parent="9y2KvSh_7_GxnZTD8iaE-2">
          <mxGeometry x="50" y="257" width="10" height="40" as="geometry" />
        </mxCell>
        <mxCell id="9y2KvSh_7_GxnZTD8iaE-3" value="Print Service" style="shape=umlLifeline;perimeter=lifelinePerimeter;whiteSpace=wrap;html=1;container=1;collapsible=0;recursiveResize=0;outlineConnect=0;" vertex="1" parent="1">
          <mxGeometry x="1160" y="60" width="100" height="800" as="geometry" />
        </mxCell>
        <mxCell id="9y2KvSh_7_GxnZTD8iaE-4" value="Tse Client" style="shape=umlLifeline;perimeter=lifelinePerimeter;whiteSpace=wrap;html=1;container=1;collapsible=0;recursiveResize=0;outlineConnect=0;" vertex="1" parent="1">
          <mxGeometry x="420" y="60" width="100" height="800" as="geometry" />
        </mxCell>
        <mxCell id="9y2KvSh_7_GxnZTD8iaE-21" value="" style="html=1;points=[];perimeter=orthogonalPerimeter;" vertex="1" parent="9y2KvSh_7_GxnZTD8iaE-4">
          <mxGeometry x="45" y="150" width="10" height="40" as="geometry" />
        </mxCell>
        <mxCell id="9y2KvSh_7_GxnZTD8iaE-35" value="" style="html=1;points=[];perimeter=orthogonalPerimeter;" vertex="1" parent="9y2KvSh_7_GxnZTD8iaE-4">
          <mxGeometry x="45" y="310" width="10" height="110" as="geometry" />
        </mxCell>
        <mxCell id="9y2KvSh_7_GxnZTD8iaE-47" value="" style="html=1;points=[];perimeter=orthogonalPerimeter;" vertex="1" parent="9y2KvSh_7_GxnZTD8iaE-4">
          <mxGeometry x="45" y="460" width="10" height="120" as="geometry" />
        </mxCell>
        <mxCell id="9y2KvSh_7_GxnZTD8iaE-5" value="Print Client" style="shape=umlLifeline;perimeter=lifelinePerimeter;whiteSpace=wrap;html=1;container=1;collapsible=0;recursiveResize=0;outlineConnect=0;" vertex="1" parent="1">
          <mxGeometry x="960" y="60" width="120" height="800" as="geometry" />
        </mxCell>
        <mxCell id="9y2KvSh_7_GxnZTD8iaE-7" value="Distribute&amp;nbsp;Logic&lt;br&gt;(on pos client)" style="shape=umlLifeline;perimeter=lifelinePerimeter;whiteSpace=wrap;html=1;container=1;collapsible=0;recursiveResize=0;outlineConnect=0;" vertex="1" parent="1">
          <mxGeometry x="240" y="60" width="100" height="800" as="geometry" />
        </mxCell>
        <mxCell id="9y2KvSh_7_GxnZTD8iaE-17" value="" style="html=1;points=[];perimeter=orthogonalPerimeter;" vertex="1" parent="9y2KvSh_7_GxnZTD8iaE-7">
          <mxGeometry x="45" y="110" width="10" height="40" as="geometry" />
        </mxCell>
        <mxCell id="9y2KvSh_7_GxnZTD8iaE-6" value="Printer" style="shape=umlLifeline;perimeter=lifelinePerimeter;whiteSpace=wrap;html=1;container=1;collapsible=0;recursiveResize=0;outlineConnect=0;" vertex="1" parent="1">
          <mxGeometry x="1340" y="60" width="100" height="800" as="geometry" />
        </mxCell>
        <mxCell id="9y2KvSh_7_GxnZTD8iaE-8" value="Tse" style="shape=umlLifeline;perimeter=lifelinePerimeter;whiteSpace=wrap;html=1;container=1;collapsible=0;recursiveResize=0;outlineConnect=0;" vertex="1" parent="1">
          <mxGeometry x="780" y="60" width="100" height="800" as="geometry" />
        </mxCell>
        <mxCell id="9y2KvSh_7_GxnZTD8iaE-37" value="" style="html=1;points=[];perimeter=orthogonalPerimeter;" vertex="1" parent="9y2KvSh_7_GxnZTD8iaE-8">
          <mxGeometry x="45" y="340" width="10" height="40" as="geometry" />
        </mxCell>
        <mxCell id="9y2KvSh_7_GxnZTD8iaE-49" value="" style="html=1;points=[];perimeter=orthogonalPerimeter;" vertex="1" parent="9y2KvSh_7_GxnZTD8iaE-8">
          <mxGeometry x="45" y="500" width="10" height="40" as="geometry" />
        </mxCell>
        <mxCell id="9y2KvSh_7_GxnZTD8iaE-18" value="mqtt: orders.start" style="html=1;verticalAlign=bottom;endArrow=block;entryX=0.067;entryY=0;entryDx=0;entryDy=0;entryPerimeter=0;" edge="1" parent="1" target="9y2KvSh_7_GxnZTD8iaE-17">
          <mxGeometry width="80" relative="1" as="geometry">
            <mxPoint x="110" y="170" as="sourcePoint" />
            <mxPoint x="280" y="170" as="targetPoint" />
          </mxGeometry>
        </mxCell>
        <mxCell id="9y2KvSh_7_GxnZTD8iaE-23" value="onOrderPlaced(orderId)" style="html=1;verticalAlign=bottom;endArrow=block;" edge="1" parent="1" target="9y2KvSh_7_GxnZTD8iaE-4">
          <mxGeometry width="80" relative="1" as="geometry">
            <mxPoint x="290" y="210" as="sourcePoint" />
            <mxPoint x="440" y="211" as="targetPoint" />
          </mxGeometry>
        </mxCell>
        <mxCell id="9y2KvSh_7_GxnZTD8iaE-27" value="mqtt: event: order_placed" style="html=1;verticalAlign=bottom;endArrow=block;" edge="1" parent="1" target="9y2KvSh_7_GxnZTD8iaE-28">
          <mxGeometry width="80" relative="1" as="geometry">
            <mxPoint x="470" y="250" as="sourcePoint" />
            <mxPoint x="550" y="250" as="targetPoint" />
          </mxGeometry>
        </mxCell>
        <mxCell id="9y2KvSh_7_GxnZTD8iaE-31" value="getOrderDetail(orderId)" style="html=1;verticalAlign=bottom;endArrow=block;entryX=1;entryY=0;exitX=-0.017;exitY=0.25;exitDx=0;exitDy=0;exitPerimeter=0;" edge="1" target="9y2KvSh_7_GxnZTD8iaE-30" parent="1" source="9y2KvSh_7_GxnZTD8iaE-28">
          <mxGeometry relative="1" as="geometry">
            <mxPoint x="640" y="290" as="sourcePoint" />
          </mxGeometry>
        </mxCell>
        <mxCell id="9y2KvSh_7_GxnZTD8iaE-32" value="orderData" style="html=1;verticalAlign=bottom;endArrow=open;dashed=1;endSize=8;exitX=1.233;exitY=0.972;exitDx=0;exitDy=0;exitPerimeter=0;" edge="1" source="9y2KvSh_7_GxnZTD8iaE-30" parent="1" target="9y2KvSh_7_GxnZTD8iaE-28">
          <mxGeometry relative="1" as="geometry">
            <mxPoint x="650" y="319" as="targetPoint" />
            <mxPoint x="120" y="308" as="sourcePoint" />
          </mxGeometry>
        </mxCell>
        <mxCell id="9y2KvSh_7_GxnZTD8iaE-34" value="mqtt: exec: StartTransaction" style="html=1;verticalAlign=bottom;endArrow=block;exitX=0.067;exitY=0.993;exitDx=0;exitDy=0;exitPerimeter=0;" edge="1" parent="1" source="9y2KvSh_7_GxnZTD8iaE-28" target="9y2KvSh_7_GxnZTD8iaE-35">
          <mxGeometry width="80" relative="1" as="geometry">
            <mxPoint x="640" y="365" as="sourcePoint" />
            <mxPoint x="477" y="359" as="targetPoint" />
            <Array as="points" />
          </mxGeometry>
        </mxCell>
        <mxCell id="9y2KvSh_7_GxnZTD8iaE-36" value="StartTransaction" style="html=1;verticalAlign=bottom;endArrow=block;" edge="1" parent="1" target="9y2KvSh_7_GxnZTD8iaE-37">
          <mxGeometry width="80" relative="1" as="geometry">
            <mxPoint x="475" y="400" as="sourcePoint" />
            <mxPoint x="750" y="390" as="targetPoint" />
          </mxGeometry>
        </mxCell>
        <mxCell id="9y2KvSh_7_GxnZTD8iaE-39" value="Transaction No." style="html=1;verticalAlign=bottom;endArrow=open;dashed=1;endSize=8;entryX=0.9;entryY=0.636;entryDx=0;entryDy=0;entryPerimeter=0;" edge="1" parent="1" target="9y2KvSh_7_GxnZTD8iaE-35">
          <mxGeometry relative="1" as="geometry">
            <mxPoint x="830" y="440" as="sourcePoint" />
            <mxPoint x="480" y="440" as="targetPoint" />
          </mxGeometry>
        </mxCell>
        <mxCell id="9y2KvSh_7_GxnZTD8iaE-43" value="mqtt: exec_result" style="html=1;verticalAlign=bottom;endArrow=block;" edge="1" parent="1">
          <mxGeometry width="80" relative="1" as="geometry">
            <mxPoint x="470" y="480" as="sourcePoint" />
            <mxPoint x="650" y="480" as="targetPoint" />
          </mxGeometry>
        </mxCell>
        <mxCell id="9y2KvSh_7_GxnZTD8iaE-46" value="mqtt: exec: FinishTransaction" style="html=1;verticalAlign=bottom;endArrow=block;entryX=0.9;entryY=0;entryDx=0;entryDy=0;entryPerimeter=0;" edge="1" parent="1" target="9y2KvSh_7_GxnZTD8iaE-47">
          <mxGeometry width="80" relative="1" as="geometry">
            <mxPoint x="648" y="520" as="sourcePoint" />
            <mxPoint x="500" y="520" as="targetPoint" />
          </mxGeometry>
        </mxCell>
        <mxCell id="9y2KvSh_7_GxnZTD8iaE-48" value="FinishTransaction" style="html=1;verticalAlign=bottom;endArrow=block;" edge="1" parent="1" target="9y2KvSh_7_GxnZTD8iaE-8">
          <mxGeometry width="80" relative="1" as="geometry">
            <mxPoint x="480" y="560" as="sourcePoint" />
            <mxPoint x="550" y="560" as="targetPoint" />
          </mxGeometry>
        </mxCell>
        <mxCell id="9y2KvSh_7_GxnZTD8iaE-50" value="Transaction No., Signature No. Signature" style="html=1;verticalAlign=bottom;endArrow=open;dashed=1;endSize=8;" edge="1" parent="1" target="9y2KvSh_7_GxnZTD8iaE-4">
          <mxGeometry relative="1" as="geometry">
            <mxPoint x="830" y="600" as="sourcePoint" />
            <mxPoint x="750" y="600" as="targetPoint" />
          </mxGeometry>
        </mxCell>
        <mxCell id="9y2KvSh_7_GxnZTD8iaE-51" value="mqtt: exec_result" style="html=1;verticalAlign=bottom;endArrow=block;" edge="1" parent="1" target="9y2KvSh_7_GxnZTD8iaE-52">
          <mxGeometry width="80" relative="1" as="geometry">
            <mxPoint x="470" y="640" as="sourcePoint" />
            <mxPoint x="550" y="640" as="targetPoint" />
          </mxGeometry>
        </mxCell>
      </root>
    </mxGraphModel>
  </diagram>
</mxfile>
